# xmcd
# 
# Track frame offsets:
#     150
#     15061
#     31110
#     45819
#     65503
#     79281
#     92225
#     108432
#     119401
#     133683
#     150723
# 
# Disc length: 2137
# 
# Revision: 0
# Processed by: cddbd v1.5.2PL0 Copyright (c) Steve Scherf et al.
# Submitted via: BonkEnc v1.0.15
# 
DISCID=7d08570b
DTITLE=Freddie King - My Feeling For The Blues
DYEAR=1970
DGENRE=Blues
TTITLE0=Yonder Wall
TTITLE1=Stumble
TTITLE2=I Wonder Why
TTITLE3=Stormy Monday
TTITLE4=I Don't Know
TTITLE5=What'd I Say
TTITLE6=Ain't Nobody's Business What We Do
TTITLE7=You Don't Have To Go
TTITLE8=Woke Up This Morning
TTITLE9=The Things I Used To Do
TTITLE10=My Feeling For The Blues
EXTD=
EXTT0=
EXTT1=
EXTT2=
EXTT3=
EXTT4=
EXTT5=
EXTT6=
EXTT7=
EXTT8=
EXTT9=
EXTT10=
PLAYORDER=
